<svg width="16" height="16.029" viewBox="0 0 4.233 4.241" xmlns="http://www.w3.org/2000/svg"><path d="M18.208-11.54v-.5h7v6h-7v-5.5" fill="none"/><path d="M1.853.145c-.001-.073-.023-.167.084-.132h.445c.002.583-.003 1.167.002 1.75.025.143.195.092.299.102h1.551v.529c-.583.001-1.167-.003-1.75.002-.143.024-.092.195-.102.298v1.552h-.529c-.001-.583.003-1.167-.002-1.75-.024-.144-.195-.092-.298-.102H.001v-.53c.583 0 1.167.004 1.75-.001.144-.025.093-.195.102-.299V.145z" fill="#272525"/><g fill-opacity="0" fill="none"><path d="M28.208-11.54v-.5h6v6h-6v-.5-1-1-1-1-1M18.208-2.54v-.5h6.5q.5 0 .5.5t0 1 0 1 0 1 0 1 0 1 0 1v.5h-7v-6.5M28.208-2.54v-.5h6v7h-6v-.5-1-1-1-1-1-1"/></g></svg>